<svg height="114.83385" viewBox="0 0 72.259582 9.5914691" width="870.823365" xmlns="http://www.w3.org/2000/svg" xmlns:xlink="http://www.w3.org/1999/xlink"><clipPath id="a"><path d="m542 152h7v55h-7zm0 0"/></clipPath><clipPath id="b"><path d="m342.30469 66.367188c-1.94922 0-3.53125 1.578125-3.53907 3.527343l-.5039 135.597659c-.008 1.96093 1.57812 3.55468 3.53906 3.55468h203.03906c1.94922 0 3.53125-1.57812 3.53907-3.52734l.5039-135.597655c.008-1.960937-1.57812-3.554687-3.53906-3.554687zm0 0"/></clipPath><clipPath id="c"><path d="m350 66h71v3h-71zm0 0"/></clipPath><clipPath id="d"><path d="m342.30469 66.367188c-1.94922 0-3.53125 1.578125-3.53907 3.527343l-.5039 135.597659c-.008 1.96093 1.57812 3.55468 3.53906 3.55468h203.03906c1.94922 0 3.53125-1.57812 3.53907-3.52734l.5039-135.597655c.008-1.960937-1.57812-3.554687-3.53906-3.554687zm0 0"/></clipPath><clipPath id="e"><path d="m547 186h2v24h-2zm0 0"/></clipPath><clipPath id="f"><path d="m342.30469 66.367188c-1.94922 0-3.53125 1.578125-3.53907 3.527343l-.5039 135.597659c-.008 1.96093 1.57812 3.55468 3.53906 3.55468h203.03906c1.94922 0 3.53125-1.57812 3.53907-3.52734l.5039-135.597655c.008-1.960937-1.57812-3.554687-3.53906-3.554687zm0 0"/></clipPath><g transform="translate(-203.32095 -169.47699)"><g clip-path="url(#a)" transform="matrix(.35277778 0 0 .35277778 181.44402 137.28496)"><g clip-path="url(#b)"><path d="m.00001875-.00149375.16015625.37890675-.1054688.269531.1054688.214844h.59375l.160156.109375-.214844 1.078125-.160156.105468h-.378906l-.1054688.164063.0546878.214844.375.105468v.484375l.160156.433594-.320313.054688-.109375-.324219-.1601558-.054688-.109375.378907.5937498.589843.269531-.589843.429688.320312-.324219.539063-.050781.378906.375.214844.214844-.269532h.269531l.054687.160157-.324218.269531v.214844l.808593.488281-.054687.210937-.265625-.160156-.324219.160156-.164062.542969.269531.214844.648437.105469.160157.164062.054687.265625.269531.164063.164063-.109375.269531.214843-.539062.59375.214843.214844.539063-.214844.160156.214844-.59375.484375-.105469.378906-4.957031-.433593.484375 1.027343.589844.429688v.324219l.703125.429687.1601562.484375.3242188.324219v.863281l-.539063.214844v.324219l-.375.539062-7.277343-.484375-7.652344-.378906-18.535156-.539063 1.5625-10.34375-.105469-16.703125h.324219l-.109375-.324218.324218-.269532.320313.164063-.214844-.324219.214844-.109375.324219.269531.214843-.160156v.214844l.160157.109375.05469-.273438.269531.273438.109375-.05469-.109375-.21875.21875-.05078.05078.269531.324218.105469.05469-.269531.539062.164062.375-.21875.109375-5.066406 15.574219.378906 7.058594.320313.054687.273437.265625.05078v.214843l-.589843.433594-.054688.214844.160156.109375.433594-.164063.214844.164063v.753906l.269531.214844.105469.324219-.324219.105468-.160156-.429687-.375.699219.269531.648437.324219.378906v.269532l-.21875.05469-.054688-.488281-.320312-.265625h-.324219l-.160156.214844.589844.375v.269531l-.214844.269531-.214844-.05078v-.539063l-.433594-.05469.378907.699219-.378907.375-.050781.273437.484375-.05469.160156.375-.050781.21875-.433594.269531-.054687.265625.378906.21875.644531-.484375.324219.210937-.160156.324219-.539063-.105469-.160156.59375.589844.160157.378906-.214844.269531.160156-.59375.648438.269532.808593-.59375.539063.164062.105469.265625-.160157.21875.05469.160156-.269531.160157.05078-.050782.433594.160157.214843.484375.109375.109375.589844h-.324222l-.269531.160156-.109375.273438.164062.320312.699219-.320312.269531.160156-.105469.269531-.808593.054688-.054688.429687.429688-.269531.269531.054688.214844.753906.378906-.160156.054687.050781-.109375.808594.539063.109375.109375-.59375.160156.109375.054688.484375.484375.539062-.109375.699219.433593.484375-.484375.648437.160157.699219.164062-.054687v-.429684l.105469-.109375.214844.109375.269531.378906-.054688.214844-.484375.050781-.160156.757813.269531.105469.160157-.269532-.160157-.375.269532-.054687.269531.160156-.164063.539063.054688.214843-.214844.378907.109375.21875.269531-.058594.050782-.429688.648437.269532.324219-.054688v.324219l.375.378906v.160156l-.484375.324219-.054688.214844.109375.4843748zm0 0" fill="none" stroke="#fff" stroke-miterlimit="10" stroke-width=".679" transform="matrix(1 0 0 -1 586.1367 176.1821)"/></g></g><g clip-path="url(#c)" transform="matrix(.35277778 0 0 .35277778 181.44402 137.28496)"><g clip-path="url(#d)"><path d="m-.00195.000025.378906-.109375 1.1875-1.34375.214844-1.402344-.054687-.753906-.214844-.539062.054687-.429688-.269531-1.027344.589844-.589843 1.238281-.753907.542969-.109375.269531-.324218h1.507813l.808593.214843h.269532l.375.269532.59375.054687.59375-.269531 1.238281-.054688.59375-.429687.699219-.164063.59375-.429687v-.59375l.105468-.105469.972657.269531.539062-.164062.214844-.214844.429687.214844 1.671875.269531.324219-.105469.539063-.648437 1.722656-.160156.484375.324218 1.1875.214844.753906-.054687 1.292969-.160157.753906.429688.539063-.269531h1.292968l1.023438-.324219 1.183594.429687 13.203125-3.175781-.105469.699219-.164063.214844.539063.703125-.160156.320312v1.023438l-.109375.324218-.214844.164063.324219.644531 5.335937 23.492188-.140625.03516-17.375 4.222656-9.859375 2.585938-7.542969 2.210937.105469-.324219-.05469-.105468h-.050779l-.109375.05078-.054687.109375-.054688.05469h-.050781l-.109375-.164068v-.105469l.160156-.109375.054688-.05078v-.05469l-.054688-.109374-.214843-.109375v-.105468l.324218-.484375v-.05469l-.054687-.269529h.054687l.054688-.05469.214844-.269531v-.105467l-.269532-.269531v-.214844l.054688-.05469.054687.05469.589844.375h.109375l.324219-.324218v-.05078l-.269531-.21875v-.05469l-.05469-.265625v-.21875l.160156-.265625.164063-.273438v-.214843l-.164063-.160157-.105468-.05469h-.05469l-.160156.05469v.05469l-.05469-.05469h-.05469v-.917968l-.05469-.05078-.269531.05078v.05469h-.05469l-.160157.378906-.054687.05078-.105469.21875v.054687h-.109361l-.429687-.054687-.109375-.109375.054687-.269532-.054687-.324218v-.05078l.054687-.05469.160156-.109375.054688.05469h.324219l.054687-.05469v-.160156l.050781-.214844.054688-.109375h.054687l.054688-.05469.160156-.320312.433594-.433594.05078-.05469v-.05078l-.160156-.273437-.05469-.160156-.105468-.05469h-.054685l-.324219.324225-.109375-.054688h-.105468l-.164063-.054687-.105469-.050781-.054687-.054688v-.808594l-.054688-.105468v-.05469l.109375-.05469.105469-.05469.054688-.05469.109375-.269532.054687-.214843.050781-.109375.054688-.05078.109375-.05469.054687-.05469.050782.05469v.214844l-.214844.378917-.160156.160156-.054688.164063-.054687.214843v.160157l.109375.05469h.105468l.054688.05078.054687.109375v.109375h.214844l.109375-.05469.160156-.105469.05469-.05859v-.160159l-.214844-.589844.105469-.542968.433594-.589844h.105468l.05469.109375.109375-.05469.105469-.05469.05469-.109375.05469-.05469.05469-.109375v-.105468h-.05469l-.160157.105468v.164063h-.109375l-.109375-.164063-.105468-.210937-.109375-.05469-.105469-.05469-.269531-.05469-.109375.05469h-.05469l-.105476-.214832-.21875-.429687-.105468-.164063v-.05469l-.324219-.214841-.105469-.054688-.054687-.054687v-.320313l-.054688-.214843v-.324219l-.214844-.109375-.214843-.105469-.109375-.054687h-.054688v-.164063l.429688-.429687v-.105469l-.050782-.324219v-.05469l-.054687.05469-.054688.105469.054688.109375h-.054688l-.054687.054687-.105469-.109375h-.054687l-.054688-.105468-.109375-.324219v-.214844l.109375-.214844.054688-.054687-.054688-.109375-.054687-.105469-.105469-.109375v-.054687l.105469-.324219.109375-.214844v-.105469l-.054688-.214843-.109375-.109375-.753906-.109375h-.050781v-.105469l.214843-.21875v-.105469l-.109375-.054687h-.105468l-.539063.59375v.054687h-.054687v-.269531l-.054688-.109375-.109375-.164063-.214844-.265625-.269531-.269531-.914062-.539062-.109375-.054688h-.105469l-.269531.753906v.109375h-.054688l-.054687-.054687-.160157-.539063v-.054687l-.054687.054687-.054688.214844-.054687.054688v.054687l.109375.214844v.054687l-.109375.050782-.269531-.105469-.105469-.808594h-.214844v.429688h-.054687l-.054688.054687-.324219-.160156-.105468.105469.050781.054687.324219.164063.054687.050781.054688.164062.214843.105469.054688.109375v.105469h-.054688l-.269531-.269531h-.160156l-.054688.054687-.054687-.105469-.109375-.164062h-.105469l-.164062-.050781h-.105469v.105468l.050781.109375.109375.050782.214844.054687.109375.109375.429687.160156.109375.109375v.105469l-.324218.054688-.160157.054687-.269531.109375-.109375.054688-.054687.105468h.054687l.164063.054688.160156.054687.109375-.054687.050781-.054688v-.105468l.054688-.054688h.164062l.214844-.109375h.050781v.054688l.21875.484375h.054688l.050781.054687.59375.105469v.054687h.054687l.054688.378907.050781.05469.054688.05078h.054687v-.050783l.105469-.269531v-.433594l-.429688-.484375v-.109375l.164063-.539062.050781-.050782h.054688l.109375.105469h.050781l-.050781.054688v.160156h.050781l.054687.054687.109375-.054687v.054687l.054688.054688v.214844l-.054688.054687-.164062.109375h-.050781v.054688l.375.375v.054687l.054687.105469-.054687.054687.054687.054688.648438.160156v-.050781h.050781l.054687-.054688v-.054687l-.054687-.054688-.269531-.054687v-.050781l.054687-.109375h-.054687v-.054688l-.210938-.054687h-.058594l-.050781-.214844v-.105469l.484375-.21875.054688-.105469.160156-.109375v.054688h.054687l.105469.160156v.488281h.054688v.050782l.214843.269531h.054688l.054687.488281v.05078l.484375.539063.054688.05469-.054688.05469-.160156.109375v.105469l.105469.484375-.050781.05469h-.054688l-.378906-.269538-.429688-.054688h-.109375v.05469l.054688.05469.378906.109375.050781.05078-.160156.214843-.054687.05469-.054688-.054693h-.050781l-.054688.05469v.324219h.054688v.05469l.105469.105469.054687-.05469.109375-.484375.160156-.105468h.109375v.05469l.050782.05078.054687.378907v.59375l-.054687.05078-.050782.109375v.109375l.050782.05078.054687-.05078.164063-.21875.050781-.160156h.054687l.269532.269531v.160152h.109375l.160156-.05078.054687-.109375h.054688l.105469.109375v.05078l-.054688.324219v.109375l.054688.05469h.054687l.054688.05078v.109375h-.054688v.05469l.109375.644531v.05469l-.054687.109375-.109375.105469-.105469.05469-.109375-.05469v-.105475l-.054688-.863281-.050781-.054688h-.054687l-.054688.054688v.05469l.054688.214844v.05469l-.054688.054682-.054687-.054688-.269532-.109375-.324218-.160156-.320313-.269531-.269531-.378906-.054688-.269532-.164062-.214843-.050781-.054688-.324219-.105469-.105469.050782-.109375.109375h-.109375l-.59375-.214844-.160156-.109375-.324219-.214844-.320312-.324219-.054688-.214843-.054687-.050782-.054688-.054687h-.160156l-.054688-.054688.105469-.109375-.050781-.054687h-.054688l-.109375.054687-.050781-.054687-.164062-.214844-.160157-.160156v-.164063l.429688-.265625h.160156v-.109375h-.105469l-.269531.054688-.214844.160156-.054687-.054687-.109375-.105469v.05469l-.105469.105466v.269531l.324219.484375.160156.164063.484375.269531.269531.429688.484375.429687.378907.269531h.105468l.054688.05469.59375.648437.054687.105469v.109375l-.054687.269531v.105469l.054687.109375.105469.05469v-.054692l.054688-.160156v-.05469l.054687-.05469.214844.484375.054687.05469.054688-.05469v-.160151l-.054688-.164063-.269531-.753906-.269531-.269531-.054688-.160157.054688-.054687h.214844l.109375.05469v.320313l.160156.109375.214844.269531.109375.324219.214843.05469.160157.105469.054687.164063.109375.105468.105469-.05469.109375-.05078h.054687l.105469.05078v.05469l-.054687.109375-.050782.05469-.054687.105469.054687.05469-.054687.05078h-.054688l-.054687.109375v.21875l.054687.105469.054688.05469v.05469l-.054688.105469-.054687.05469-.050781.05469v.214844l.050781.109375v.105468l-.050781.109355-.054688.109375-.109375.160157-.054687.109375v.105468h.054687l.164063.05469.160156.05469.054687.05469v.210937l-.054687.058587-.054688.050781h-.105468l-.164063.054688-.160156-.054688-.164063-.050781-.160156-.109375-.109375-.109375v-.214844l.109375-.160156.160156-.164062v-.160157l-.105468-.109375-.109375-.160156h-.214844v.109375l.109375.105469.050781.05469.054688.109375v.05078l-.269532.324218-.054687.05469.054687.109375v.160156l-.054687.05078h-.480469v-.535158l-.058594-.05469-.050781.05469-.054687.05469-.054688.214843-.054687.429688.054687.214844-.054687.109375-.050782.160156-.164062.109375-.375.05469-.109375-.05469-.160156-.109375h-.164063l-.214844.05469-.484375.109375-.269531.105469-.324219.269531h-.105468l-.109375.05469-.054688-.05469-.054687.05469-.160157.109375-.054687.105469-.054688.05469-.375.05469-.109375-.05469-.160156.105469-.160156.269531-.703125.109375-1.078125.429688-.644531.484375v.109375l.105468.109375-.589843.589843h-.109375l-.269532.05469-.484375.378906-.59375.644531-.375.484375h-.164062l-.105469.05469h-.054687v.05469h-.054688v.214844l-.214844.109375h-.109375l-.105468.05469-.109375-.05469v-.214844l.054687-.164062.105469-.105469.054687-.164062v-.05078l-.269531-.378925-.214844-.214844-.054687-.484375-.320313-.269531.105469-.433594-.214844-1.292968v-.808594l.109375-.214844.105469.05469.164063-.160157.484375-1.347656v-1.078127l-.433594-2.585937v-.054688h.109375l.109375-.05469.050781-.05469v-.05469h-.160156l-.054688-.105469.054688-.214844.109375-.160156.105469-.164063v-.429679l-.054688-.59375-.214844-1.347656-.105468-.109375-.054688-.160157-.109375-.269531-.054687-.160156-.050782-.109375v-.054688h.160157l.054687.054688.105469.054687.054687.054688v.050781l.054688.109375.054687.214844v.214844l.054688.109375h.050781l.054688.054687.160156-.054687h.164062l.054688-.054688h.050781l.054688-.160156.054687-.214844.109375-.269531v-.054688h.054688l.105468-.054687.160157-.054688v-.109375h.109375l.269531-.050781.324219-.109375h.054687v-.105469l-.054687-.054687h-.378907l-.214843-.054688h-.484375l-.054688-.054687h-.054687v-.050781l-.105469-.054688h-.164063l-.054687.054688h-.160156v-.109375l-.054688-.054688v-.054687h.109375v-.050782h.054688v-.054687l.050781-.109375v-.054688l-.105469-.105468h-.054687l-.054688.054687v.050781l-.050781.109375h-.109375v.054688h-.054688l.054688.160156v.484375h-.160156l-.054688-.054687h-.054687v-.050782l-.054688-.164062-.054687-.484375v-.429688l-.050782-.378906v-.105469l.050782-.054687.164062-.164063.214844-.105468.109375-.109375.105469-.054688h.054687v.164063l.054688.105468v.054688h.105468v-.054688l.054688-.050781.109375-.054687h.050781l.109375.054687.054688.050781.054687.054688.105469-.160156.109375-.164063.054687-.050781v-.054688l.050782-.164062.054687-.160156v-.105469h-.054687v.050781h-.050782v.109375l-.054687.054688v.050781l-.160156.054687h-.164063l-.109375-.054687h-.105469l-.054687-.050781h-.054688l-.054687-.109375-.050781-.054688-.054688-.105469v-.160156h-.054687l-.054688.050781h-.050781v-.050781l.160156-.757812h.054688l-.054688-.214844-.054687-.105469h-.214844l-.109375-.109375-.050781-.109375v-.050781l.105468-.109375.109375-.269531.160157-.324219.054687-.105469h-.054687l-.105469.050781-.109375.109375-.054688.109375-.054687.105469h-.050781l-.054688-.054687-.109375-.105469-.160156-.214844-.054688-.054687-.160156.054687-.164062.105469v.054687l.214843.863282.269532.96875v.429687l.054687.054688-.054687.054687h-.050782v.054688h-.054687l-.054688-.054688v-.054687l-.054687-.160157v-.054687l-.105469-.433594-.214844-.644531-.433593-1.5625-.109375-.109375-.105469-.160156-.054688-.054688v-.050781l.160157-.054688h.109375l.054687.054688v.160156h.054688l.105468.054688.054688-.054688h.054687l.269532-.269531.160156-.214844.214844-.214844.324218.050782.269532.054687.109375-.054687.050781-.050782h.378906l.109375.214844.160156-.109375v-.375l.433594-.21875.753906-.050781.214844-.21875.054688-.484375.484375-.808594.214843-.105469zm0 0" fill="none" stroke="#fff" stroke-miterlimit="10" stroke-width=".679" transform="matrix(1 0 0 -1 365.5332 46.4844)"/></g></g><g clip-path="url(#e)" transform="matrix(.35277778 0 0 .35277778 181.44402 137.28496)"><g clip-path="url(#f)"><path d="m.00093125-.000025-.21484325.109375-.269532.429687-.054687.484375-.699219.539063-.164062.324219h-.109375l-.320313.644531.105469.273437-.214844.160157h-.109375l.109375.320312-.109375.109375.21875.324219-.109375.378906.214844.375.164062.054688-.109375.269531.160157.054687v.320313l.109375.109375-.109375.109375.164062.050781-.105469.214844.214844.269531-.109375.269531-15.304687-.914062.59375.59375-.539063.535156.160156.757813-.375.375-.05469.269531.703125.054687.375.160157v.324218l-.324219.214844.05469.378906h-.160157l-.109375.324219.269532.160156.109375-.429687.324218-.109375.105469.269531-.324219.429688-.05469.703125.648437.375.160157.21875-.105469.160156h-.648438l-.105468.375.808593-.160156.160157.269531v.808594l.324218.214843.484375-.05469.160157.164062h-.859375l.214843.699219.324219.160156.160156-.320312.214844-.05469.05469.160157-.160157.324218.429688.429688.269531.703125.429688.05078.269531.324219-.109375.214844-.429688.164062-.05469.160156.164062.05469.269532-.269531h.214843l-.05469.378906.433594.375.05078.324219-.375.160156v-.484375l-.21875.109375-.210938-.109375-.378906.05469-.109375.269532.109375.378906.269531.105469.160157-.05469.433593.324219.535157-.214844-.105469.699219.539062.109375.269532.699219-.269532-.320313-.59375.05078-.214843.378907.324218.214843v.214844l-.164062.105469-.539063-.05078-.539062.429687v.269531l.21875.214844.429687-.429687h.378907l-.05469.109375-.539062.269531-.109375.214844.324218.214843.269532.429688-.214844.164062-.164063-.324218-.484375-.160157-.320312.429688.644531.753906-.324219.214844-.484375.109375.109375.753906.484375.378906-.05469.699219-.109375.324219h-.160156l-.160157-.105469v-.539062l-.269531-.164063-.214844.109375-.109375.160156.324219.757813-7.058594-.324219-15.574218-.378906.214843-9.753906.214844-.05469.269531-.539062.488282-.164063-.05469-.160156h.214844l.269531-.699219.269531-.164062.160157-.808594.160156-.05078-.320313-1.078125.484375-.59375.269532.054687.324218-.164062-.109375-.214844-.269531-.105469.214844-.214844h.214844l.05469-.433593.269531-.160157v-.214839h.214844l-.375-.59375.59375-.378907v-.269531l.160156-.105469v-.488281l.160157-.050781.21875.160156.160156-.054687v-.214844h-.109375l.109375-.375-.214844-.21875.320313-.214844-.05078-.160156.160157-.164063-.484375-.265625-.05469-.378906.324219-.109375.05469-.214844-.164062-.105468v-.214844l-.160156-.109375.160156-.324219-.105469-.109375.105469-.160156-.539063-.808594.109375-.105469-.05469-.433593-.378906-.160157-.105469-.324218h-.105469v-.214844l.160156-.160156-.378906-.109375-.105469-.378907.214844-.214843-.05469-.324219.164062-.429688-.378906-.375-.109375-.542968.164062-.320313.324219-.164062-.05469-.484375-.05469-.375.160156-.484375.109375-.054688-.109375-.054687-.160156-.433594.05469-.320313-.484375-.703125.160156-.050781.05469-.109375v-.105469l-.05469-.21875-.05469-.320312-.160156-.433594-.05469-.054687v-.050782l-.433594-.164062-.429688-.160156v-.109375l.164063-.160157.160156-.269531.214844-.429687.05469-.054688h.05469l.808594.539063.589843.214843h.59375l.917969.054688.484375-.109375.484375.054687h.109375l.699219.160157h.644531l.488281-.160157 1.777344-.59375 1.9375-.808593 1.457031-.324219 1.5625-.160156.429688.109375.753906.429687.164063.054688h.214843l.429688-.054688.109375.054688v.054687l-.109375.105469h-.05469v.054687l.21875.109375v.105469l-.05469.054688h-.05469l-.109375-.054688-.214843-.054687-.05078-.050782-.109375.050782-.109375.109375-.105468.160156-.05469.164062v.054688l-.109375.050781-.105469-.050781-.160156.105469-.109375.109375-.05469.214843v.214844l.109375.109375.105468.050781h.214844l.109375-.050781h.05469l-.05469-.109375-.05469-.214844v-.054687h.109375l.375.214844.433593.214843.375.269532.05469.054687-.05469.164063.05469.160156.05469.054687.05469-.054687.105469-.054688.109375-.105468.214843.105468.105469.109375.273438.054688.265625-.054688.05469-.054687v-.378906l-.05469-.050782v-.054687h-.214844l-.214844-.164063v-.214843l.109375-.160157.05469-.054687.160156-.054688.05469.054688.05078.109375.109375.050781.378906.164063.105469.054687.378906-.109375h.375l.324219.109375.05469.050781.05469-.050781v-.054687l.05078-.164063v-.214844l-.05078-.160156-.05469-.109375-.109375-.105469-.05078-.054687v-.160156l.05078-.054688h.164063l.324218.054688h.320313v-.109375l.109375-.269532.05469-.160156v-.214844l-.05469-.054687-.109375-.164063v-.054687h.05469l.109375.054687.269532.054688.160156.109375.160156.054687.05469.105469.109375.054688v.324218l.105468.269532.164063.269531h.105469l.05469-.164063v-.269531l-.105469-.269531-.164062-.269531-.05469-.269532v-.054687l.05469-.050781h.214844l.164062.105468h.105469l.109375-.054687v-.050781l-.05469-.054688.05469-.109375h.109375l.05078.054688.109375.160156.105469.109375.109375.109375.05469.160156h.109375l.05078.214844v.214844l-.05078.109375v.109375l-.05469.050781v.109375l.05469.109375.05078.050781.05469.109375v.054688l.05469.054687v.160156l.05078.054688-.05078.105469-.05469.054687h-.05469l-.160157.109375-.164062.050781-.160156.054688h-.539052l-.105469.054687-.05469.054688-.109375.269531-.05469.160156-.05078.214844-.109375.214844-.05469.109375-.160157.109375-.05469.054687h-.109375l-.105469.105469-.109375.054688h-.05469l-.105469.054687-.109375.050781h-.05469l-.05078.109375h-.05469l-.109375.054688-.105469.054687h-.164063l-.105468.054688-.109375.050781-.105469.109375-.05469.054688v.105468l-.109375.109375-.05469.050782v.058593l-.05469.160157v.109375l.05469.050781.05469.054687v.269532l-.109375.109375v.214843l.109375-.109375.109375-.054687.05469-.050781.05078-.109375v-.324219l.05469-.050781h.214843l.05469-.058594h.05469v-.050781l.109375-.109375-.05469-.109375h-.05469l-.05469-.050782v-.109375l.05469.054688h.05469l.05469-.054688.105469.054688h.05469v.214844h.105468l.109375-.050782.05469-.109375h.214844l.109375-.109375v-.160156l-.109375-.054687h-.05469l-.05469-.054688v-.050781l.21875-.109375.105468-.109375.109375-.054688h.05078l.109375-.105468.109375-.109375.105468.054687.05469.109375-.05469.050781v.164063l-.05078.054687-.109375.105469-.164062.164063-.05078.160156-.109375.164062-.05469.105469-.05078.105469-.05469.109375v.109375h.105469l.109375-.109375.05469-.050781.105469-.058594.109375-.210938.109375-.21875.05078-.105468.05469-.109375.05469-.054688.05469-.050781.05469-.054688.05078-.164062v-.105469l.05469-.109375v-.054687l.05469-.160157h.105468l.05469-.054687.05469-.160156v-.269532l-.109375-.054687v-.160156l.109375-.054688.164063.054688h.160156l.105469-.054688h.703125l.05469-.054687.105469-.054688.05469-.054687h.109375l.105468.054687v.109375l.05469.054688.05469.105468.05078.054688h.109375l.05469-.054688.105469-.054687v-.160156l-.05078-.054688-.05469-.105469v-.164062l.05469-.054688.05078-.105468v-.109375l-.05078-.160157h-.484375l-.109375.105469-.109375.054688h-.105469v-.214844l-.05469-.054688-.05469-.105468-.05469-.109375v-.324219l.05469-.050781h.269531l-.05469-.109375v-.054688l-.105469-.105469v-.269531l-.05469-.054687-.109375-.054688-.05469-.054687v-.214844l-.05078-.214844-.05469-.054687-.05469-.105469.05469-.21875v-.105469h.214844l.109375-.054687.05469-.109375v-.050782l-.109375-.054687v-.109375l.214844-.214844.324219-.105469.269531-.21875.05469-.05469v-.05078l-.05469-.109375.05469-.109375.05078-.05078h.214844l.109375.05078v.05469l-.05469.109375-.05469.105469v.109375l.21875.109375h.214843l.105469-.054688.05469-.054687-.05469-.054688-.105469-.05469h-.109375v-.160156l.05469-.05469h.109375l.160156.05469.164063.109375.160156.105468.160156.054688h.164063l.05078-.109375.05469-.105469v-.378906l.05469-.105469.109375-.05469.054687.05469.105469.05469.054688-.109375.160156-.05469.054687.05469h.109375l.050782-.05469.054687-.05078.164063-.05469.105468-.05469v-.164063l-.054687-.05078-.160156-.05469-.269532-.05469-.269531.05469-.214844-.05469-.109375-.164062-.05469-.160157.21875-.214843.214844-.160157h.214843l.214844.214844-.054687.105469-.105469.05469v.160157h.054687l.160157-.05078.109375-.164062h.105468l.109375.05469h.105469l.109375-.05469-.054687-.05078-.054688-.109375-.214844-.05469h-.054687v-.05078l.054687-.109375.054688-.05469.214844-.05469h.269531l.109375.05469.105469.05469-.054688.109375.054688.05078h.109375l.109375-.05078h.105468l.054688.05078v.05469l-.054688.160156-.105468.164062h-.054693l-.054687-.109375v-.05469l-.054688.05469v.214844l-.054687.109375.054687.05469h.109375l.105469-.05469.164062-.164062.050782-.214844.054687-.105469h.054688l.054687.05469v.105468l-.054687.160157v.273437l-.324219.429688-.160156.214843v.05469l.054687.05469.160156-.05469.324219-.324219.109375-.105469.050781-.109375.054688-.05469h.054687l.054688.05469.050781.109375-.050781.105469v.05469l.050781.160156.054688.109375-.054688.05469h-.105469l-.160156.05078-.054687.164062.054687.105469.050781.05469h.214844l.109375-.05469-.054687-.105469-.054688-.05469v-.05469h.109375l.105469-.05469h.269531l.054688.05469-.054688.05469-.050781.109375v.484375l.050781.054687h.054688l.109375-.054687.105468-.109375v-.214844l-.050781-.109375v-.105469l.050781-.109375h.109375l.109375.214844.105469.109375v.054687l-.105469.109375v.105469l.050782.109375h.109375l.054687-.054687v-.109375l-.054687-.105469.054687-.054688h.214844l.109375-.109375-.054688-.105468v-.21875l.054688-.105469h.050781l.054688.05469.054687.05078.054688.21875.105468.105468h.164063l.054687-.05469.050782-.105469-.050782-.109375v-.05469l.050782-.05078h.109375l.054687-.109375.054688-.105468.105468-.164063h.054688v.214844l-.054688.214844h.164063l.105469-.105469.109375-.05469.105468-.05469v-.05078l-.050781-.109375-.109375-.05469-.160156-.105469-.054688-.109375v-.160156l.054688-.05469.160156-.05469.054688-.05469.054687-.109375h-.109375l-.109375-.05078h.054688l.109375-.109375h.160156l.054687-.105468-.054687-.109375h-.054688l-.050781-.05469v-.05078l.050781-.05469.109375-.05469.378907.214844.375.269531.324218.269531.269532.214844.054687.05469v.109375l.054688.105469-.109375.109375h-.054688l-.109375-.05469v-.105469h-.105469l-.109375.160156v.160156l-.050781.109375-.058594.160157.109375.05469v.105469l-.160156.05469-.109375.109375v.054703l.054688.054687h.164062v.105469l-.058594.054688-.050781.105468h.050781l.164063-.050781.109375-.054687.050781-.054688v-.054687l-.105469-.105469.160157-.109375.21875-.054688.050781.054688v.054687l-.160156.214844-.164063.160156-.050781.109375h.160156l.109375-.109375.054688.054688v.324219h-.054688l-.109375-.054688v.214844l-.054687.21875h-.160157l-.109375.105469.109375.109375h.160157v-.109375l.109375-.160157h.054687v.054688l-.054687.214844v.105468l-.109375.054688h-.054688l-.050781-.054688-.109375-.105468h-.214844l-.214844.050781-.054687.054687-.054688.109375-.054687.054688-.105469.054687-.054687-.054687h-.054688l-.054687.054687v.105469l-.105469.054688h-.109375l-.105469.054687-.054687.050781h.054687l.160156.054688.160157-.054688.054687.054688-.054687.109375h-.050782v.054687l-.164062-.054687-.105469-.054688-.054687.054688v.105469l.054687.054687.105469.164063.214844.105468.164062.109375.105469.054688h.109375v-.109375l-.109375-.109375-.105469-.050781h-.109375v-.109375l.054688-.109375.054687-.160157.105469-.054687h.054687l.054688-.054688.054687.054688v.109375h-.109375l-.054687.105469.054687.054687.109375.054688h.105469l.054688-.054688v-.105469l.164062-.054687.050781.054687.054688-.054687v-.054688l.054687-.054687h.160157l.21875-.054688.050781-.050781v-.109375l.054687-.054687h.214844v.054687l-.160156.109375-.054688.105469v.054687l.054688.054688h.054687l.214844-.164063.160156-.214843v-.050782l-.050781-.054687-.109375.054687h-.164062l.109375-.109375.164062-.054687.105469.054687h.269531v.054688l-.109375.054687h-.050781v.050782l-.058594.109375.058594.105468v.054688l.050781.054687h.109375l.105469-.054687.054687-.054688.054688-.105468-.054688-.054688v-.105469l.109375.050782h.050782l.058593.109375h.050782l.164062-.054688.105469-.054687.109375-.050782.050781-.054687v-.054688l-.050781-.054687h-.054688l-.109375.054687-.050781-.054687h.050781l.109375-.109375-.054687-.050781-.105469-.054688v-.109375l.050781-.050781v-.109375h.164063l.160156.160156.109375.054688h.105469l.109375-.160157.054687-.324218-.054687-.160157-.054688-.109375-.105468-.054687v-.105469h.429687l.160156-.109375.214844-.054687.054688.054687v.054688l.164062.105468.160156.109375h.214844l.054688-.054687v-.054688l-.109375-.050781-.160157-.054687-.054687-.054688.054687-.054687.269532-.050782.054687-.054687v-.054688l-.164062-.054687v-.054688l.054687-.05469h.109375l.160156-.05078.214844-.109375.324219-.109375h.214844v.109375l-.105469.109375v.105468h.375l.054687-.05469v-.05078l-.109375-.05469h-.105468v-.05469l.054687-.05469.105469-.160156.164062-.269531.214844-.324219.105469-.05469.054687-.105468v-.324219l.109375-.05469.109375.05469.050782.214844.109375.109375h.109375l.050781-.109375-.050781-.160157v-.109375h.050781l.054687.05469.105469.160156.054688.164063-.054688.214843-.105469.109375v.214844l.054688.05469.105469-.05469.054687-.109375v-.05078l.109375-.05469h.160156l.109375-.05469v-.05469l-.214843-.433593-.21875-.320313h-.105469l-.054688.05469h-.054687l-.050781-.05469.105468-.160156.105469-.05469h.109375l.054688.05469h.054687l.214844.05078.214844.109375v.105469l-.054688.164062-.054687.214844.054687.05469.054688-.05469.109375-.05469.320312-.484375.164063-.214844.320312-.324219h.054688v.05469l-.054688.160156-.105469.164062v.05469l.105469.05078h.054688v.05469l-.105469.160156v.164062l.050781.105469v.109375l-.105469.160156-.109375.109375.109375.109375.160157-.05469.109375-.109375.054687-.214844.050781-.164062.054688-.105469.109375-.05469.054687.05469-.109375.269531-.054687.109375v.105469h.109375l.054687-.05469.050782-.160156v-.109375l.054687-.105469h.109375v.214844l-.054687.05469.054687.160156.105469.109375.054687.109375v.05078l-.054687.05469h-.160156l-.160157-.05469-.054687-.05078v-.05469h-.214844l-.054687.105469.054687.05469v.05469l.050781.05469.109375-.05469.054688-.05469.054687.160156v.109375l.050782.05469.164062.105469.105469.109375.054687.05469-.054687.05078h-.375v-.160156l-.054688-.109375-.054687.05469-.105469.05469-.054687-.05469v-.105469l-.054688-.05469-.269531-.05469.214844.160157.054687.269531-.214844-.214844-.160156.05469.105469.109375.109375.05078-.214844.109375.375.054687v.160157l-.269531-.050766.109375.214844-.109375.160156h-.054688l-.375.160157-.109375.324218v-.269531l-.429687-.269531v-.160156l-.160156.054687.160156.320313-.109375.214843-.269531.109375-.375-.269531-.269532.054688-.109375.054687-.105468.105469.050781.054687h.054687l.054688.109375.054687.054688.109375-.054688h.105469l.109375.054688.054688.050781v.054688l-.054688.054687h-.054687l-.109375.054688-.109375-.054688h-.105469v-.054687h-.214844l-.054687-.054688h-.054688l-.050781.109375-.164063.054688-.160156-.054688-.214844-.109375-.269531-.050781h-.164062l-.105469.050781-.109375.109375v.105469h.054687l.054688.054687h.050781l.054688-.105468.109375-.054688.054687.054688-.054687.105468-.109375.109375v.054688l.109375.054687.054687.050782.050781.054687v.054688h-.105468l-.109375-.109375-.160157.054687-.109375.054688-.214843.160156-.109375.054687-.105469.109375-.164063.050782h-.3203122l-.109375.054687v.054688l.109375.109375-.05468755.105468-.05468745.054688-.1093748.160156-.210938.054688-.164062.054687-.160156.054688-.109375.105468-.054688.054688v.109375h.054688l.160156-.109375.054687-.054688.109375-.105468h.160157l.054687.054687.054688.105469-.054688.054687-.164062.054688h-.265625l-.054688.105469.054688.054687.160156.054688.164062-.054688.160157-.054687.050781-.054688.1093748-.105469-.0546878-.054687.0546878-.054688.05468745-.050781v.050781l.05468755.054688v.109375l-.109375.050781v.054688h.1601562l.164063-.054688.105468-.050781v-.054688h.109375v.160157l-.054687.109375h-.054688l-.105468-.054688h-.054688l-.054687.054688v.054687l.054687.050781.054688.109375-.054688.054688h-.054687l-.054688-.054688v-.054687l-.0507812-.054688-.1640628.164063-.105468.054687-.054688.105469v.164063h.054688l.21484325-.054688.16015675-.164062.324218-.160157.214844-.054687.324219-.054688.269531-.160156.160156-.054687.109375.054687h.054688l-.054688.109375-.109375.105469-.160156.109375h-.214844l-.109375.054687-.269531.050782-.214844.054687h-.054687l.054687.054688.160157.054687.054687.054688v.050781l-.214844.054687h-.269531l-.109375.164063-.10546875.050781v.109375l.05468755.054688.1054692.214843v.109375l.054687.050782.109375-.050782.050781-.054687.109375-.109375-.109375-.109375h-.050781l.050781-.050781v-.054688l.054688-.054687h.109375l.105469.109375.109375.050781.054687-.050781.105469-.109375h.109375l.160156.054687.054688.054688.054687.105468-.109375.109375h-.105469l-.054687.109375.054687.105469h.054688l.050781-.105469.054688-.054687.109375.054687v.265625h-.054688l-.109375-.050781h-.160156l-.054688.050781.054688.109375.054687.164063.105469.105469.054688-.054688.054687-.050781.109375-.054688h.214844l.105469-.054687.109375-.109375v-.160156l.054687-.109375h.050781l.054688.054687h.054687v-.160156l.054688-.109375h.054687l.054688.214844.105469.054687h.054687l.054688-.054687h.214843l.050782.054687-.050782.054688-.109375.105468-.105468.054688-.109375.054687h-.269532l-.109375.054688v.109375l.054688.050781-.105469.054688-.054687.109375v.050781h.160156l-.054688.109375-.050781.054687-.109375.160157-.105469.160156-.054687.109375v.054687l.054687.054688h.050782l.164062.050781h.324219l.050781.054688v.21875l-.214844.050781-.109375-.050781-.214843-.109375-.105469-.054688h-.109375l-.054688.054688h-.050781v.214843l.214844-.054687.105469.054687h.054687v.160157l-.160156-.050782-.109375-.054687-.054688.054687v.050782l.054688.109375.109375.164062.105469.050781.054687.109375v.105469l-.105469.054688h-.054687l-.109375-.105469-.054688-.164063-.050781-.105468-.109375-.054688h-.054687l-.054688.054688-.214844-.109375-.160156-.109375-.109375-.050782v-.054687l-.054687-.054688.054687-.105468v-.109375l-.054687-.375-.105469-.378907-.109375-.109375-.105469-.054687-.164062-.105469-.375.105469-.269532.109375-.109375.105469-.054687.109375v.160156h.109375l.054687.058594.050782.050781-.050782.109375-.054687.050781h-.214844l-.164062-.105469-.214844-.105468-.160156-.058594-.109375.058594-.109375.105468-.105469.214844-.054688.214844.109375.164062.109375.105469.214844.164063h.160156l.160157-.054688h.269531l.054687.054688-.054687.105468.054687.054688v.054687h.269532l.054687.105469v.164063l.054688.160156.105468.164062.10937525.105469v.054688l-.05468745.054687-.0546878.050781-.054687.054688v.054687l.054687.054688.10937525.054687.16015675.050782.164062.054687.160156.054688-.648437.917968zm0 0" fill="none" stroke="#fff" stroke-miterlimit="10" stroke-width=".679" transform="matrix(1 0 0 -1 593.5186 220.2656)"/></g></g><g fill="#0c2b6b"><path d="m210.58264 172.28162c-.38585.34313-2.27239.66972-2.39365-.31282-.35416-2.87872-3.2191-3.10747-4.42626-.77308 0 0 .15847-.0689.22462-.0992 2.55488-1.13413 3.69865.50711 3.89433.8654.0717.13092.13918.29353.19017.41755.0965.23151.10198 1.14377 1.95682.63665 1.33807-.36518 1.37528-1.53513.14607-1.52962 0 0 1.05695.21911.4079.79513"/><path d="m203.97494 176.25037c.63528-.52366 2.98484-1.75424 3.96186-.97152.15021.11989.12265.27147.19706.39136.20395.32384 3.32521-.29076 3.85713-2.51216.0248-.10749-.12678-.43546-.12678-.43546-.10473 1.29536-2.14698 2.52457-3.57187 2.04363-.21635-.0717-.11989-.41479-.37621-.58291-.94533-.62563-2.7919-.13918-4.27605.72209 0 0 .13643.70418.33486 1.34497"/><path d="m205.02088 178.93617s.41892-.53744.78548-.82132c.79375-.6146 1.93339-1.27193 2.10151-.70142 0 0 .0138.0951-.001.17088-.0138.0744.0386.13091.11024.11162 3.05374-.83647 4.06108-2.59071 4.02801-3.95635-.45338 1.71428-2.13458 2.59072-3.83095 2.79191-.18052-.003.0124-.31419-.23151-.47267-.74965-.48507-3.17913 1.00321-3.53604 1.53514 0 0 .43821 1.10932.57464 1.34221"/><path d="m203.47196 173.66517c2.3151-1.1355 3.81441-.91088 4.4235-.16261.24529.30041.21084.53606.35278.6022 1.23472.5774 3.48093-.58291 3.37068-1.7818-.003-.0469-.0496-.10749-.0496-.10749-.0675-.0854-.2191-.21773-.2191-.21773.43132 1.60404-2.7423 2.02021-3.22875 1.27882-.0965-.14607-.22875-.54157-.29765-.65181-.33073-.52779-1.79421-1.53513-4.33669-.26596 0 0-.0648.41479-.0152 1.30638"/><path d="m215.69378 176.58247c0 .61737.10473.76482.86954.76482.83785 0 1.65503-.37758 1.65503-1.55168 0-1.09967-.63941-1.58198-1.86449-1.58198h-.66008zm0-2.73402h.61874c1.03628 0 1.62333-.35692 1.62333-1.34221 0-1.00597-.73312-1.28847-1.47726-1.27744-.72209.01-.76481.0634-.76481.49196zm1.03766-2.97656c1.13138 0 2.30408.22048 2.30408 1.57234 0 .84749-.56499 1.34083-1.50757 1.52962v.0207c.95223.1254 1.82177.49196 1.82177 1.71842 0 .62838-.24116 1.08865-.61736 1.41386-.47129.39826-1.23611.58567-2.13734.58567h-2.82911v-.32384c.85989-.0634.88056-.0841.88056-.62838v-4.93476c0-.55535-.0207-.57602-.88056-.62839v-.32521zm0 0"/><path d="m222.86372 174.91643c-.22049.13642-.72347.32521-1.12035.47129-.53468.20946-.74414.45062-.74414.91088 0 .57602.30317.99494.90124.99494.3762 0 .96325-.18741.96325-.97427zm.9219 1.49793c0 .61736.1571.78548.33487.83784.10473.0207.25218.0317.3886 0l.0413.30455c-.24115.15709-.6711.2825-1.0473.2825-.34589 0-.52366-.18879-.65044-.58705-.31419.20946-.84749.58705-1.45521.58705-.93293 0-1.42489-.66008-1.42489-1.3932 0-.47129.20946-.9853.92191-1.20441.77446-.24115 1.71841-.49333 1.96922-.75516v-.34589c0-.77446-.38723-1.01561-.86955-1.01561-.39825 0-.74414.20946-.96325.94258-.0427.17776-.12678.29352-.33624.29352-.19843 0-.54432-.1571-.54432-.47129 0-.54571.7965-1.13137 1.92787-1.13137 1.49793 0 1.70739.76481 1.70739 1.35048zm0 0"/><path d="m229.62161 176.8071c0 .50298.0427.52365.73312.57601v.32522h-2.41983v-.32522c.69177-.0524.73449-.062.73449-.56499v-2.28341c0-.84887-.36656-1.21543-1.02664-1.21543-.51401 0-.9536.31282-1.15342.70142-.0841.14745-.0937.29352-.0937.53468v2.26274c0 .50298.0524.51263.73311.56499v.32522h-2.41983v-.32522c.70142-.0524.73311-.073.73311-.56499v-3.0179c0-.35554-.0634-.41893-.31419-.45062l-.34589-.051v-.28388l1.46624-.2508.13642.73312c.61874-.38723 1.06936-.74414 1.79145-.74414.91226 0 1.44556.57602 1.44556 1.57234zm0 0"/><path d="m235.61332 176.81261c0 .50298.0414.52365.73312.57602v.32384h-2.41984v-.32384c.69178-.0524.73312-.0634.73312-.56638v-2.28341c0-.84887-.36656-1.21542-1.02664-1.21542-.51263 0-.9536.31419-1.15204.7028-.0841.14607-.0937.29214-.0937.5333v2.26273c0 .50299.0524.51401.73311.56638v.32384h-2.41983v-.32384c.70142-.0524.73311-.073.73311-.56638v-3.01652c0-.35691-.0634-.41892-.31419-.45062l-.34589-.0524v-.2825l1.46624-.25218.13642.73449c.61736-.38861 1.06798-.74414 1.79145-.74414.91089 0 1.44556.57602 1.44556 1.57096zm0 0"/><path d="m239.4236 174.74831c.27285 0 .33624-.11576.33624-.3142 0-.38723-.11576-1.30913-1.00597-1.30913-1.01699 0-1.16306 1.2044-1.16306 1.62333zm-1.84244.40927c-.0221 1.01562.23013 2.15801 1.44556 2.15801.77446 0 1.13137-.46164 1.40285-1.02664l.31419.16675c-.27147.77583-.83785 1.38355-1.93752 1.38355-1.65502 0-2.28341-.9536-2.28341-2.5039 0-1.47725.73311-2.57693 2.28341-2.57693 1.80247 0 2.00091 1.40284 2.00091 2.00091 0 .32384-.18879.39825-.40928.39825zm0 0"/><path d="m242.83838 176.82225c0 .49334.0524.52504.93293.56638v.32521h-2.61965v-.32521c.68075-.0524.73311-.073.73311-.56638v-3.01652c0-.35553-.062-.41892-.31419-.45062l-.36655-.0413v-.29352l1.51859-.25218.11576.80752c.63941-.57601.94257-.81717 1.29949-.81717.38723 0 .5333.26183.5333.49196 0 .31419-.21911.60772-.47129.60772-.062 0-.13642-.011-.20946-.0524-.2508-.18879-.41893-.2508-.57602-.2508-.23013 0-.57602.26044-.57602 1.00459zm0 0"/><path d="m249.14842 174.34041v2.40881c0 .55535.0207.57602.88056.63941v.32384h-2.80844v-.32384c.85989-.0634.88057-.0841.88057-.63941v-4.92373c0-.55535-.0207-.57602-.88057-.62839v-.32521h2.80844v.32521c-.84887.0524-.88056.0841-.88056.62839v2.11667h3.37343v-2.11667c0-.55535-.0207-.57602-.88057-.62839v-.32521h2.80845v.32521c-.84887.0524-.88057.073-.88057.62839v4.92373c0 .55535.0317.57602.88057.63941v.32384h-2.80845v-.32384c.8599-.0634.88057-.0841.88057-.63941v-2.40881zm0 0"/><path d="m257.56961 174.75795c.27147 0 .33486-.11437.33486-.31419 0-.38723-.11575-1.30914-1.00597-1.30914-1.01561 0-1.16306 1.20441-1.16306 1.62333zm-1.84382.40928c-.022 1.01561.23013 2.15801 1.44556 2.15801.77446 0 1.13137-.46164 1.40285-1.02664l.31557.16674c-.27286.77584-.83923 1.38355-1.9389 1.38355-1.65503 0-2.28341-.9536-2.28341-2.50389 0-1.47726.73311-2.57693 2.28341-2.57693 1.80247 0 2.00091 1.40422 2.00091 2.00091 0 .32521-.18879.39825-.4079.39825zm0 0"/><path d="m262.24116 174.92607c-.21911.13643-.7221.32522-1.12035.47129-.53468.20947-.74414.45062-.74414.91089 0 .5774.30454.99632.90124.99632.37758 0 .96325-.18879.96325-.97427zm.9219 1.49793c0 .61874.1571.78548.33487.83785.10611.022.25218.0317.3886 0l.0413.30454c-.24115.1571-.66972.2825-1.0473.2825-.34589 0-.52366-.18879-.64906-.58704-.31419.20946-.84887.58704-1.45659.58704-.93155 0-1.42489-.66008-1.42489-1.39319 0-.47129.20946-.9853.92191-1.20441.77584-.24116 1.71841-.49334 1.96922-.75516v-.34589c0-.77446-.38723-1.01562-.86954-1.01562-.39688 0-.74277.20946-.96325.94258-.0413.17777-.12541.29352-.33487.29352-.19981 0-.5457-.15709-.5457-.47129 0-.54432.79651-1.13136 1.92788-1.13136 1.49792 0 1.70738.76481 1.70738 1.35185zm0 0"/><path d="m264.81946 171.36384c0-.3762-.0524-.42857-.30316-.46026l-.37758-.0317v-.2825l1.57096-.24116.0744.062v6.42166c0 .49334.0303.51401.73312.56637v.32522h-2.43086v-.32522c.70142-.0524.73311-.073.73311-.56637zm0 0"/><path d="m268.36516 173.33306v2.97519c0 .74414.30317.97565.63803.97565.24116 0 .37483-.003.60496-.10749l.0841.27147c-.33487.20947-.68902.40101-1.192.40101-.35554 0-1.09968-.13642-1.09968-1.13137v-3.38446h-.70142v-.43959h.74414l.61736-1.2361h.30455v1.2361h1.24574v.43959zm0 0"/><path d="m270.52592 171.37487c0-.35691-.0537-.40928-.30455-.45062l-.37758-.0524v-.2825l1.56132-.24116.073.0524v3.11161c.61875-.40928 1.05834-.74414 1.78181-.74414.92191 0 1.45521.57601 1.45521 1.57096v2.49287c0 .48231.0634.52503.73311.56637v.32522h-2.41983v-.32522c.6711-.0524.73449-.0841.73449-.56637v-2.31373c0-.8282-.36656-1.18511-1.02664-1.18511-.514 0-.9536.31557-1.16306.71245-.073.13642-.0841.28387-.0841.52365v2.26274c0 .48231.062.51401.72209.56637v.32522h-2.40881v-.32522c.69178-.0524.72347-.0841.72347-.56637zm0 0"/></g></g></svg>